<svg width="916" height="562" viewBox="0 0 916 562" fill="none" xmlns="http://www.w3.org/2000/svg">
<g opacity="0.05">
<path d="M24.32 2V560" stroke="white" stroke-width="3" stroke-linecap="round"/>
<path d="M674 25L1.99997 25" stroke="white" stroke-width="3" stroke-linecap="round"/>
<path d="M916 25L1.99998 25" stroke="white" stroke-width="3" stroke-linecap="round"/>
<path d="M916 47L1.99998 47" stroke="white" stroke-width="3" stroke-linecap="round"/>
<path d="M916 69L1.99998 69" stroke="white" stroke-width="3" stroke-linecap="round"/>
<path d="M916 92L1.99998 92" stroke="white" stroke-width="3" stroke-linecap="round"/>
<path d="M916 114L1.99998 114" stroke="white" stroke-width="3" stroke-linecap="round"/>
<path d="M916 136L1.99998 136" stroke="white" stroke-width="3" stroke-linecap="round"/>
<path d="M916 159L1.99998 159" stroke="white" stroke-width="3" stroke-linecap="round"/>
<path d="M916 181L1.99998 181" stroke="white" stroke-width="3" stroke-linecap="round"/>
<path d="M916 203L1.99998 203" stroke="white" stroke-width="3" stroke-linecap="round"/>
<path d="M916 225L1.99998 225" stroke="white" stroke-width="3" stroke-linecap="round"/>
<path d="M916 248L1.99998 248" stroke="white" stroke-width="3" stroke-linecap="round"/>
<path d="M916 270L1.99998 270" stroke="white" stroke-width="3" stroke-linecap="round"/>
<path d="M916 292L1.99998 292" stroke="white" stroke-width="3" stroke-linecap="round"/>
<path d="M916 315L1.99998 315" stroke="white" stroke-width="3" stroke-linecap="round"/>
<path d="M916 337L1.99998 337" stroke="white" stroke-width="3" stroke-linecap="round"/>
<path d="M916 359L1.99998 359" stroke="white" stroke-width="3" stroke-linecap="round"/>
<path d="M916 382L1.99998 382" stroke="white" stroke-width="3" stroke-linecap="round"/>
<path d="M916 404L1.99998 404" stroke="white" stroke-width="3" stroke-linecap="round"/>
<path d="M916 426L1.99998 426" stroke="white" stroke-width="3" stroke-linecap="round"/>
<path d="M916 449L1.99998 449" stroke="white" stroke-width="3" stroke-linecap="round"/>
<path d="M916 471L1.99998 471" stroke="white" stroke-width="3" stroke-linecap="round"/>
<path d="M916 493L1.99998 493" stroke="white" stroke-width="3" stroke-linecap="round"/>
<path d="M916 516H1.99998" stroke="white" stroke-width="3" stroke-linecap="round"/>
<path d="M916 538H1.99998" stroke="white" stroke-width="3" stroke-linecap="round"/>
<path d="M46.64 2V560" stroke="white" stroke-width="3" stroke-linecap="round"/>
<path d="M68.96 2V560" stroke="white" stroke-width="3" stroke-linecap="round"/>
<path d="M91.28 2V560" stroke="white" stroke-width="3" stroke-linecap="round"/>
<path d="M113.6 2V560" stroke="white" stroke-width="3" stroke-linecap="round"/>
<path d="M135.92 2V560" stroke="white" stroke-width="3" stroke-linecap="round"/>
<path d="M158.24 2V560" stroke="white" stroke-width="3" stroke-linecap="round"/>
<path d="M180.56 2V560" stroke="white" stroke-width="3" stroke-linecap="round"/>
<path d="M202.88 2V560" stroke="white" stroke-width="3" stroke-linecap="round"/>
<path d="M225.2 2V560" stroke="white" stroke-width="3" stroke-linecap="round"/>
<path d="M247.52 2V560" stroke="white" stroke-width="3" stroke-linecap="round"/>
<path d="M269.84 2V560" stroke="white" stroke-width="3" stroke-linecap="round"/>
<path d="M292.16 2V560" stroke="white" stroke-width="3" stroke-linecap="round"/>
<path d="M314.48 2V560" stroke="white" stroke-width="3" stroke-linecap="round"/>
<path d="M336.8 2V560" stroke="white" stroke-width="3" stroke-linecap="round"/>
<path d="M359.12 2V560" stroke="white" stroke-width="3" stroke-linecap="round"/>
<path d="M381.44 2V560" stroke="white" stroke-width="3" stroke-linecap="round"/>
<path d="M403.76 2V560" stroke="white" stroke-width="3" stroke-linecap="round"/>
<path d="M426.08 2V560" stroke="white" stroke-width="3" stroke-linecap="round"/>
<path d="M448.4 2V560" stroke="white" stroke-width="3" stroke-linecap="round"/>
<path d="M470.72 2V560" stroke="white" stroke-width="3" stroke-linecap="round"/>
<path d="M493.04 2V560" stroke="white" stroke-width="3" stroke-linecap="round"/>
<path d="M515.36 2V560" stroke="white" stroke-width="3" stroke-linecap="round"/>
<path d="M537.68 2V560" stroke="white" stroke-width="3" stroke-linecap="round"/>
<path d="M560 2V560" stroke="white" stroke-width="3" stroke-linecap="round"/>
<path d="M582.32 2V560" stroke="white" stroke-width="3" stroke-linecap="round"/>
<path d="M604.64 2V560" stroke="white" stroke-width="3" stroke-linecap="round"/>
<path d="M626.96 2V560" stroke="white" stroke-width="3" stroke-linecap="round"/>
<path d="M649.28 2V560" stroke="white" stroke-width="3" stroke-linecap="round"/>
<path d="M671.6 2V560" stroke="white" stroke-width="3" stroke-linecap="round"/>
<path d="M693.92 2V560" stroke="white" stroke-width="3" stroke-linecap="round"/>
<path d="M716.24 2V560" stroke="white" stroke-width="3" stroke-linecap="round"/>
<path d="M738.56 2V560" stroke="white" stroke-width="3" stroke-linecap="round"/>
<path d="M762 2V560" stroke="white" stroke-width="3" stroke-linecap="round"/>
<path d="M785 2V560" stroke="white" stroke-width="3" stroke-linecap="round"/>
<path d="M808 2V560" stroke="white" stroke-width="3" stroke-linecap="round"/>
<path d="M831 2V560" stroke="white" stroke-width="3" stroke-linecap="round"/>
<path d="M854 2V560" stroke="white" stroke-width="3" stroke-linecap="round"/>
<path d="M877 2V560" stroke="white" stroke-width="3" stroke-linecap="round"/>
<path d="M900 2V560" stroke="white" stroke-width="3" stroke-linecap="round"/>
</g>
</svg>
