<svg width="1258" height="504" viewBox="0 0 1258 504" fill="none" xmlns="http://www.w3.org/2000/svg">
<mask id="mask0_118_1070" style="mask-type:alpha" maskUnits="userSpaceOnUse" x="0" y="0" width="1258" height="504">
<rect width="1258" height="504" fill="white"/>
</mask>
<g mask="url(#mask0_118_1070)">
<g opacity="0.05">
<path d="M55.7417 15V896" stroke="white" stroke-width="3" stroke-linecap="round"/>
<path d="M913.382 50.6806L19.9986 50.6806" stroke="white" stroke-width="3" stroke-linecap="round"/>
<path d="M1235 50.6805L19.9986 50.6805" stroke="white" stroke-width="3" stroke-linecap="round"/>
<path d="M1235 85.9205L19.9986 85.9205" stroke="white" stroke-width="3" stroke-linecap="round"/>
<path d="M1235 121.161L19.9986 121.161" stroke="white" stroke-width="3" stroke-linecap="round"/>
<path d="M1235 156.401L19.9986 156.401" stroke="white" stroke-width="3" stroke-linecap="round"/>
<path d="M1235 191.641L19.9986 191.641" stroke="white" stroke-width="3" stroke-linecap="round"/>
<path d="M1235 226.88L19.9986 226.88" stroke="white" stroke-width="3" stroke-linecap="round"/>
<path d="M1235 262.121L19.9986 262.121" stroke="white" stroke-width="3" stroke-linecap="round"/>
<path d="M1235 297.36L19.9986 297.36" stroke="white" stroke-width="3" stroke-linecap="round"/>
<path d="M1235 332.6L19.9986 332.6" stroke="white" stroke-width="3" stroke-linecap="round"/>
<path d="M1235 367.841L19.9986 367.841" stroke="white" stroke-width="3" stroke-linecap="round"/>
<path d="M1235 403.081L19.9986 403.081" stroke="white" stroke-width="3" stroke-linecap="round"/>
<path d="M1235 438.321L19.9986 438.321" stroke="white" stroke-width="3" stroke-linecap="round"/>
<path d="M1235 473.561L19.9986 473.561" stroke="white" stroke-width="3" stroke-linecap="round"/>
<path d="M91.477 15V896" stroke="white" stroke-width="3" stroke-linecap="round"/>
<path d="M127.212 15V896" stroke="white" stroke-width="3" stroke-linecap="round"/>
<path d="M162.948 15V896" stroke="white" stroke-width="3" stroke-linecap="round"/>
<path d="M198.683 15V896" stroke="white" stroke-width="3" stroke-linecap="round"/>
<path d="M234.418 15V896" stroke="white" stroke-width="3" stroke-linecap="round"/>
<path d="M270.154 15V896" stroke="white" stroke-width="3" stroke-linecap="round"/>
<path d="M305.889 15V896" stroke="white" stroke-width="3" stroke-linecap="round"/>
<path d="M341.624 15V896" stroke="white" stroke-width="3" stroke-linecap="round"/>
<path d="M377.36 15V896" stroke="white" stroke-width="3" stroke-linecap="round"/>
<path d="M413.095 15V896" stroke="white" stroke-width="3" stroke-linecap="round"/>
<path d="M448.83 15V896" stroke="white" stroke-width="3" stroke-linecap="round"/>
<path d="M484.566 15V896" stroke="white" stroke-width="3" stroke-linecap="round"/>
<path d="M520.301 15V896" stroke="white" stroke-width="3" stroke-linecap="round"/>
<path d="M556.029 15V896" stroke="white" stroke-width="3" stroke-linecap="round"/>
<path d="M591.764 15V896" stroke="white" stroke-width="3" stroke-linecap="round"/>
<path d="M627.499 15V896" stroke="white" stroke-width="3" stroke-linecap="round"/>
<path d="M663.235 15V896" stroke="white" stroke-width="3" stroke-linecap="round"/>
<path d="M698.97 15V896" stroke="white" stroke-width="3" stroke-linecap="round"/>
<path d="M734.705 15V896" stroke="white" stroke-width="3" stroke-linecap="round"/>
<path d="M770.441 15V896" stroke="white" stroke-width="3" stroke-linecap="round"/>
<path d="M806.176 15V896" stroke="white" stroke-width="3" stroke-linecap="round"/>
<path d="M841.911 15V896" stroke="white" stroke-width="3" stroke-linecap="round"/>
<path d="M877.647 15V896" stroke="white" stroke-width="3" stroke-linecap="round"/>
<path d="M913.382 15V896" stroke="white" stroke-width="3" stroke-linecap="round"/>
<path d="M949.117 15V896" stroke="white" stroke-width="3" stroke-linecap="round"/>
<path d="M984.853 15V896" stroke="white" stroke-width="3" stroke-linecap="round"/>
<path d="M1020.59 15V896" stroke="white" stroke-width="3" stroke-linecap="round"/>
<path d="M1056.32 15V896" stroke="white" stroke-width="3" stroke-linecap="round"/>
<path d="M1092.06 15V896" stroke="white" stroke-width="3" stroke-linecap="round"/>
<path d="M1127.79 15V896" stroke="white" stroke-width="3" stroke-linecap="round"/>
<path d="M1163.53 15V896" stroke="white" stroke-width="3" stroke-linecap="round"/>
<path d="M1199.26 15V896" stroke="white" stroke-width="3" stroke-linecap="round"/>
</g>
</g>
</svg>
