<svg width="878" height="699" viewBox="0 0 878 699" fill="none" xmlns="http://www.w3.org/2000/svg">
<mask id="mask0_111_234" style="mask-type:alpha" maskUnits="userSpaceOnUse" x="-75" y="-2" width="955" height="703">
<g opacity="0.05">
<path d="M626 28.3096L-73.0001 28.3095" stroke="white" stroke-width="3" stroke-linecap="round"/>
<path d="M877.64 28.3095L-73 28.3095" stroke="white" stroke-width="3" stroke-linecap="round"/>
<path d="M877.64 56.2695L-73 56.2695" stroke="white" stroke-width="3" stroke-linecap="round"/>
<path d="M877.64 84.2295L-73 84.2295" stroke="white" stroke-width="3" stroke-linecap="round"/>
<path d="M877.64 112.19L-73 112.19" stroke="white" stroke-width="3" stroke-linecap="round"/>
<path d="M877.64 140.149L-73 140.149" stroke="white" stroke-width="3" stroke-linecap="round"/>
<path d="M877.64 168.11L-73 168.11" stroke="white" stroke-width="3" stroke-linecap="round"/>
<path d="M877.64 196.07L-73 196.07" stroke="white" stroke-width="3" stroke-linecap="round"/>
<path d="M877.64 224.03L-73 224.03" stroke="white" stroke-width="3" stroke-linecap="round"/>
<path d="M877.64 251.99L-73 251.99" stroke="white" stroke-width="3" stroke-linecap="round"/>
<path d="M877.64 279.949L-73 279.949" stroke="white" stroke-width="3" stroke-linecap="round"/>
<path d="M877.64 307.91L-73 307.91" stroke="white" stroke-width="3" stroke-linecap="round"/>
<path d="M877.64 335.87L-73 335.87" stroke="white" stroke-width="3" stroke-linecap="round"/>
<path d="M877.64 363.83L-73 363.83" stroke="white" stroke-width="3" stroke-linecap="round"/>
<path d="M877.64 391.789L-73 391.789" stroke="white" stroke-width="3" stroke-linecap="round"/>
<path d="M877.64 419.75L-73 419.75" stroke="white" stroke-width="3" stroke-linecap="round"/>
<path d="M877.64 447.71L-73 447.71" stroke="white" stroke-width="3" stroke-linecap="round"/>
<path d="M877.64 475.67L-73 475.67" stroke="white" stroke-width="3" stroke-linecap="round"/>
<path d="M877.64 503.63L-73 503.63" stroke="white" stroke-width="3" stroke-linecap="round"/>
<path d="M877.64 531.59L-73 531.59" stroke="white" stroke-width="3" stroke-linecap="round"/>
<path d="M877.64 559.549L-73 559.549" stroke="white" stroke-width="3" stroke-linecap="round"/>
<path d="M877.64 587.51L-73 587.51" stroke="white" stroke-width="3" stroke-linecap="round"/>
<path d="M877.64 615.47L-73 615.47" stroke="white" stroke-width="3" stroke-linecap="round"/>
<path d="M877.64 643.43L-73 643.43" stroke="white" stroke-width="3" stroke-linecap="round"/>
<path d="M877.64 671.39L-73 671.39" stroke="white" stroke-width="3" stroke-linecap="round"/>
<path d="M10.88 0V699" stroke="white" stroke-width="3" stroke-linecap="round"/>
<path d="M38.84 0V699" stroke="white" stroke-width="3" stroke-linecap="round"/>
<path d="M66.8 0V699" stroke="white" stroke-width="3" stroke-linecap="round"/>
<path d="M94.7601 0V699" stroke="white" stroke-width="3" stroke-linecap="round"/>
<path d="M122.72 0V699" stroke="white" stroke-width="3" stroke-linecap="round"/>
<path d="M150.68 0V699" stroke="white" stroke-width="3" stroke-linecap="round"/>
<path d="M178.64 0V699" stroke="white" stroke-width="3" stroke-linecap="round"/>
<path d="M206.6 0V699" stroke="white" stroke-width="3" stroke-linecap="round"/>
<path d="M234.56 0V699" stroke="white" stroke-width="3" stroke-linecap="round"/>
<path d="M262.52 0V699" stroke="white" stroke-width="3" stroke-linecap="round"/>
<path d="M290.48 0V699" stroke="white" stroke-width="3" stroke-linecap="round"/>
<path d="M318.44 0V699" stroke="white" stroke-width="3" stroke-linecap="round"/>
<path d="M346.4 0V699" stroke="white" stroke-width="3" stroke-linecap="round"/>
<path d="M374.36 0V699" stroke="white" stroke-width="3" stroke-linecap="round"/>
<path d="M402.32 0V699" stroke="white" stroke-width="3" stroke-linecap="round"/>
<path d="M430.28 0V699" stroke="white" stroke-width="3" stroke-linecap="round"/>
<path d="M458.24 0V699" stroke="white" stroke-width="3" stroke-linecap="round"/>
<path d="M486.2 0V699" stroke="white" stroke-width="3" stroke-linecap="round"/>
<path d="M514.16 0V699" stroke="white" stroke-width="3" stroke-linecap="round"/>
<path d="M542.12 0V699" stroke="white" stroke-width="3" stroke-linecap="round"/>
<path d="M570.08 0V699" stroke="white" stroke-width="3" stroke-linecap="round"/>
<path d="M598.04 0V699" stroke="white" stroke-width="3" stroke-linecap="round"/>
<path d="M626 0V699" stroke="white" stroke-width="3" stroke-linecap="round"/>
<path d="M653.96 0V699" stroke="white" stroke-width="3" stroke-linecap="round"/>
<path d="M681.92 0V699" stroke="white" stroke-width="3" stroke-linecap="round"/>
<path d="M709.88 0V699" stroke="white" stroke-width="3" stroke-linecap="round"/>
<path d="M737.84 0V699" stroke="white" stroke-width="3" stroke-linecap="round"/>
<path d="M765.8 0V699" stroke="white" stroke-width="3" stroke-linecap="round"/>
<path d="M793.76 0V699" stroke="white" stroke-width="3" stroke-linecap="round"/>
<path d="M821.72 0V699" stroke="white" stroke-width="3" stroke-linecap="round"/>
<path d="M849.68 0V699" stroke="white" stroke-width="3" stroke-linecap="round"/>
</g>
</mask>
<g mask="url(#mask0_111_234)">
<rect x="-73" y="1" width="951" height="555" fill="white"/>
</g>
</svg>
