<svg width="758" height="758" viewBox="0 0 758 758" fill="none" xmlns="http://www.w3.org/2000/svg">
<path d="M534.453 152.027L563.151 253.114C566.701 265.613 576.085 275.621 588.332 279.962L650.185 301.889C674.239 310.416 684.315 338.942 670.956 360.687L624.253 436.706C615.918 450.275 616.398 467.489 625.479 480.572L645.088 508.825C664.397 536.644 642.673 574.392 608.919 571.673L402.993 555.081C391.532 554.156 380.225 558.199 371.943 566.175L289.023 646.069C265.328 668.9 225.737 655.053 221.432 622.432L212.748 556.607C209.38 531.075 183.161 515.288 159.018 524.255C128.054 535.757 97.2387 506.993 106.582 475.311L118.021 436.53C122.68 420.728 117.204 403.685 104.212 393.556L94.5554 386.027C66.085 363.827 79.1428 318.256 115.052 314.507L183.277 307.382C201.924 305.434 216.732 290.829 218.938 272.213L233.146 152.363C236.999 119.86 276.061 105.41 300.14 127.579L368.623 190.632C385.9 206.54 413.087 204.263 427.479 185.707L464.174 138.401C484.332 112.416 525.471 120.396 534.453 152.027Z" fill="#A566EB"/>
<path d="M164.264 372.064C162.588 360.644 159.961 350.001 156.302 339.897C150.316 323.38 141.956 313.291 131.437 309.891C131.195 309.812 130.95 309.736 130.704 309.666C127.422 308.708 124.63 308.693 122.404 309.625C117.839 311.541 116.07 317.496 116.995 322.15C118.043 327.416 121.725 331.969 125.189 335.723C129.459 340.355 134.186 344.738 138.749 348.978C144.614 354.423 150.68 360.05 155.931 366.321C157.199 367.837 158.389 369.378 159.508 370.935C168.064 391.747 177.311 420.892 176.227 447.756C175.995 453.491 175.32 458.208 174.527 461.945C172.723 451.21 166.09 434.397 144.783 415.134C138.626 406.061 131.973 398.003 124.688 390.779C112.212 378.414 100.336 372.87 89.3758 374.298C89.1231 374.331 88.8704 374.366 88.6178 374.409C85.2396 374.947 82.7104 376.13 81.0984 377.926C77.7935 381.61 78.741 387.752 81.5684 391.56C84.7697 395.873 90.0453 398.41 94.7828 400.322C100.625 402.68 106.772 404.62 112.712 406.5C120.343 408.911 128.233 411.402 135.662 414.823C137.974 415.887 140.185 417.044 142.297 418.272C142.299 418.274 142.299 418.274 142.302 418.277C141.122 418.204 139.745 418.178 138.14 418.234C131.528 416.877 125.093 416.117 118.723 415.955C106.721 415.652 98.2191 418.461 93.4361 424.308C93.325 424.445 93.2163 424.578 93.1102 424.717C91.6826 426.567 90.9802 428.341 91.0181 429.991C91.1015 433.371 94.4493 435.981 97.643 436.55C101.256 437.194 105.069 435.984 108.321 434.713C112.331 433.149 116.297 431.231 120.133 429.382C125.057 427.004 130.149 424.546 135.447 422.764C135.955 422.595 136.46 422.433 136.966 422.279C143.757 421.877 146.329 422.969 146.456 423.025C146.782 423.191 147.135 423.249 147.476 423.229C159.9 435.779 165.732 446.77 168.45 454.583C172.425 466.011 170.772 473.25 170.752 473.343C170.745 473.378 170.745 473.414 170.737 473.449C170.724 473.52 170.714 473.588 170.707 473.656C170.702 473.72 170.699 473.783 170.702 473.846C170.702 473.912 170.707 473.975 170.714 474.038C170.722 474.104 170.732 474.167 170.747 474.23C170.76 474.291 170.775 474.351 170.795 474.412C170.815 474.473 170.836 474.531 170.861 474.591C170.886 474.652 170.914 474.708 170.944 474.766C170.974 474.821 171.005 474.872 171.04 474.922C171.076 474.975 171.116 475.028 171.156 475.079C171.197 475.129 171.242 475.175 171.288 475.22C171.331 475.263 171.376 475.306 171.427 475.347C171.482 475.392 171.54 475.433 171.599 475.473C171.629 475.493 171.654 475.516 171.684 475.536C171.702 475.546 171.722 475.549 171.74 475.559C171.856 475.622 171.98 475.675 172.114 475.716C172.142 475.723 172.167 475.738 172.192 475.743C172.197 475.743 172.2 475.746 172.205 475.749C172.349 475.784 172.49 475.796 172.632 475.802C172.65 475.802 172.667 475.809 172.685 475.809C172.685 475.809 172.685 475.809 172.688 475.809C172.69 475.809 172.688 475.809 172.69 475.809C172.844 475.809 172.993 475.784 173.14 475.751C173.173 475.743 173.206 475.736 173.236 475.726C173.38 475.685 173.519 475.63 173.65 475.559C173.668 475.549 173.683 475.536 173.701 475.526C173.82 475.455 173.928 475.372 174.029 475.279C174.052 475.258 174.077 475.238 174.097 475.215C174.206 475.107 174.302 474.983 174.383 474.849C174.391 474.839 174.398 474.831 174.406 474.821C174.61 474.473 179.403 466.066 180.189 448.327C181.364 421.781 172.708 393.172 164.264 372.064Z" fill="black"/>
<path d="M130.361 326.241C132.687 326.241 134.573 324.355 134.573 322.029C134.573 319.703 132.687 317.817 130.361 317.817C128.035 317.817 126.149 319.703 126.149 322.029C126.149 324.355 128.035 326.241 130.361 326.241Z" fill="white"/>
<path d="M95.6015 392.722C97.9277 392.722 99.8135 390.837 99.8135 388.51C99.8135 386.184 97.9277 384.298 95.6015 384.298C93.2753 384.298 91.3895 386.184 91.3895 388.51C91.3895 390.837 93.2753 392.722 95.6015 392.722Z" fill="white"/>
<path d="M101.37 431.158C103.308 431.158 104.879 429.587 104.879 427.648C104.879 425.71 103.308 424.139 101.37 424.139C99.4316 424.139 97.8603 425.71 97.8603 427.648C97.8603 429.587 99.4316 431.158 101.37 431.158Z" fill="white"/>
<path d="M124.931 491.025C124.931 491.017 124.931 491.007 124.931 491V490.898H124.934C124.951 485.173 128.65 479.455 136.058 475.084L433.695 300.661C448.589 291.87 472.845 291.875 487.836 300.668L617.138 376.547C624.683 380.973 628.445 386.787 628.427 392.591H628.43L628.372 406.323C628.354 412.054 624.648 417.774 617.25 422.143L319.613 596.566C304.696 605.367 280.463 605.351 265.472 596.556L136.17 520.675C128.625 516.249 124.853 510.437 124.87 504.631L124.931 491.025Z" fill="black"/>
<path d="M268.112 578.586L135.733 500.902C127.624 496.144 127.627 484.253 135.738 479.498L435.944 303.468C451.002 294.637 469.551 294.64 484.607 303.473L505.103 315.497C505.513 315.737 505.849 316.083 506.081 316.5L515.736 333.919C516.072 334.526 516.562 335.028 517.153 335.375L557.456 359.032C557.88 359.282 558.35 359.439 558.838 359.497L584.464 362.541C585.118 362.62 585.75 362.832 586.321 363.165L619.663 382.729C626.73 386.876 626.727 397.24 619.66 401.384L317.443 578.594C302.179 587.546 283.373 587.541 268.112 578.586Z" fill="white"/>
<path d="M529.2 330.533L556.142 346.34C557.625 347.212 557.787 348.528 556.501 349.281C555.215 350.034 552.971 349.941 551.485 349.069L524.544 333.262C523.06 332.391 522.899 331.074 524.185 330.321C525.473 329.568 527.717 329.662 529.2 330.533ZM565.354 444.807C565.612 444.036 566.001 443.283 566.479 442.619C567.022 441.866 567.679 441.227 568.381 440.815L593.117 426.309C594.045 425.769 594.883 425.718 595.49 426.069L597.938 427.499C597.332 427.146 596.495 427.196 595.568 427.739L570.832 442.245C570.13 442.657 569.47 443.293 568.93 444.049C568.452 444.713 568.063 445.466 567.805 446.237C567.588 446.884 567.467 447.543 567.467 448.167V449.256C567.467 450.35 567.851 451.124 568.467 451.485L566.019 450.057C565.4 449.699 565.018 448.925 565.018 447.831V446.742C565.016 446.116 565.137 445.456 565.354 444.807Z" fill="white"/>
<path d="M570.83 442.242L595.566 427.737C597.435 426.648 598.931 427.537 598.929 429.738V430.827C598.929 433.005 597.433 435.661 595.563 436.75L570.827 451.255C568.978 452.331 567.464 451.432 567.464 449.254V448.165C567.464 445.964 568.983 443.321 570.83 442.242Z" fill="black"/>
<path d="M526.049 467.969C526.307 467.198 526.696 466.445 527.174 465.781C527.715 465.028 528.374 464.389 529.076 463.977L553.813 449.471C554.74 448.931 555.576 448.877 556.183 449.231L558.631 450.661C558.024 450.308 557.188 450.358 556.261 450.901L531.525 465.407C530.822 465.819 530.163 466.455 529.622 467.211C529.145 467.875 528.756 468.628 528.498 469.399C528.281 470.046 528.159 470.705 528.159 471.329V472.418C528.159 473.512 528.543 474.286 529.16 474.647L526.711 473.219C526.092 472.861 525.711 472.087 525.711 470.993V469.904C525.713 469.275 525.835 468.616 526.049 467.969Z" fill="white"/>
<path d="M531.527 465.404L556.263 450.899C558.133 449.81 559.629 450.699 559.626 452.9V453.989C559.626 456.167 558.131 458.822 556.261 459.911L531.525 474.417C529.675 475.493 528.162 474.594 528.162 472.416V471.327C528.162 469.126 529.678 466.483 531.527 465.404Z" fill="black"/>
<path d="M213.162 527.95C215.307 531.429 220.108 534.069 224.211 534.069C224.312 534.069 224.416 534.067 224.517 534.064C226.89 533.988 228.769 532.985 229.669 531.313C230.573 529.632 230.369 527.497 229.111 525.456C227.723 523.207 225.212 521.309 222.506 520.248C220.927 519.629 219.282 519.296 217.758 519.344C215.383 519.419 213.503 520.423 212.604 522.098C211.702 523.778 211.904 525.911 213.162 527.95ZM216.548 525.863C216.07 525.087 215.901 524.367 216.108 523.983C216.313 523.606 216.993 523.351 217.885 523.323C220.674 523.235 224.254 525.17 225.722 527.548C226.2 528.323 226.369 529.046 226.162 529.43C225.957 529.809 225.278 530.062 224.388 530.09C221.647 530.183 217.993 528.202 216.548 525.863ZM198.871 308.084C198.826 308.084 198.783 308.084 198.74 308.082C195.369 307.978 192.085 303.971 188.403 295.468C181.97 280.604 179.985 262.945 182.812 245.746C184.073 238.083 186.248 230.793 189.156 224.28C182.958 206.82 173.226 185.718 158.311 166.591C147.287 152.457 137.825 146.557 130.181 149.058C110.4 155.529 104.268 216.783 103.576 239.839C103.543 240.938 102.605 241.779 101.526 241.767C100.427 241.734 99.5658 240.817 99.5986 239.718C99.6037 239.505 100.278 218.251 104.071 196.256C109.266 166.128 117.634 148.975 128.943 145.276C138.348 142.198 149.286 148.545 161.449 164.142C175.651 182.355 185.24 202.295 191.587 219.327C194.306 214.282 197.494 209.842 201.044 206.242C210.676 196.471 222.134 193.53 233.378 197.924C235.677 185.599 240.304 174.403 247.848 168.736C248.725 168.076 249.973 168.253 250.633 169.133C251.292 170.012 251.115 171.257 250.236 171.917C244.167 176.475 239.493 186.511 237.166 199.569C251.656 206.323 260.052 215.699 260.924 226.2C261.672 235.243 256.611 244.321 247.712 249.892C243.94 252.255 240.175 251.282 237.388 247.224C232.259 239.755 230.093 220.156 232.716 201.951C232.643 201.921 232.57 201.891 232.499 201.86C225.528 198.962 214.903 197.856 203.879 209.039C199.897 213.076 196.345 218.36 193.447 224.494C196.716 233.904 198.965 242.191 200.451 248.488C206.242 273.016 207.472 296.676 203.379 304.749C201.987 307.485 200.185 308.084 198.871 308.084ZM191.107 230.005C184.143 248.384 182.799 272.506 192.054 293.892C196.393 303.918 198.836 304.107 198.859 304.107C199.015 304.102 199.392 303.801 199.826 302.945C202.932 296.82 202.848 275.973 196.575 249.4C195.339 244.164 193.568 237.522 191.107 230.005ZM236.529 203.67C236.312 205.284 236.13 206.937 235.983 208.622C234.659 223.805 236.63 239.091 240.668 244.97C242.623 247.821 244.195 247.401 245.602 246.519C253.235 241.741 257.586 234.081 256.962 226.528C256.232 217.751 249.026 209.731 236.529 203.67ZM300.385 487.503C299.074 485.504 296.168 482.573 292.964 480.34C283.487 473.735 272.395 473.692 263.632 479.796C253.897 486.58 255.709 494.446 264.14 500.323C267.902 502.946 271.677 504.492 274.682 505.409L268.989 512.388C266.404 511.759 261.732 509.831 256.684 506.498L250.6 510.735L244.412 506.422L250.837 501.945C249.678 500.856 248.637 499.737 247.73 498.595L240.453 503.663L234.265 499.35L244.2 492.427C241.65 485.32 244.099 477.863 253.066 471.615C261.179 465.963 271.543 463.686 282.269 465.905L292.798 458.57L298.986 462.883L290.764 468.611C292.308 469.278 293.846 470.043 295.38 470.91L302.942 465.642L309.13 469.955L301.719 475.117C306.126 478.482 308.807 481.512 309.709 483.238L300.385 487.503Z" fill="black"/>
<path d="M561.223 352.061C563.035 350.992 565.981 350.992 567.803 352.061C569.624 353.132 569.632 354.863 567.823 355.932C566.011 357 563.068 357.003 561.243 355.932C559.422 354.865 559.412 353.129 561.223 352.061ZM216.108 523.98C216.313 523.604 216.993 523.348 217.885 523.321C220.674 523.232 224.254 525.168 225.722 527.545C226.2 528.321 226.369 529.044 226.162 529.428C225.957 529.807 225.278 530.059 224.388 530.087C221.647 530.18 217.993 528.2 216.548 525.86C216.07 525.087 215.901 524.367 216.108 523.98Z" fill="white"/>
<path d="M470.422 550.338C470.382 550.338 470.344 550.338 470.306 550.336C469.207 550.3 468.345 549.383 468.381 548.284C468.416 547.185 469.326 546.316 470.432 546.359C470.448 546.359 470.463 546.359 470.478 546.359C472.992 546.359 489.89 540.54 509.25 529.094C525.726 519.354 547.129 503.671 555.515 484.276C562.901 467.196 558.565 450.303 542.629 434.051C539.244 442.212 535.535 449.82 531.56 456.68C516.087 483.384 498.549 495.661 480.847 492.182C465.526 489.173 456.068 479.882 454.219 466.026C451.659 446.849 464.517 424.472 483.493 415.083C494.4 409.686 515.991 404.421 541.131 427.1C550.204 403.587 556.615 375.965 559.068 348.66C561.145 325.551 560.122 304.926 556.276 288.262C554.54 290.127 552.736 291.817 550.861 293.336C541.707 300.747 531.393 303.561 520.208 301.702C501.872 298.654 489.711 287.426 487.677 271.67C485.835 257.397 492.806 243.315 504.252 238.186C509.975 235.622 516.468 235.483 523.035 237.792C530.347 240.362 537.692 245.86 544.868 254.132C550.472 260.595 554.914 269.297 558.108 279.816C561.387 275.237 564.546 269.585 567.454 262.629C575.244 244 578.988 219.967 577.472 198.343C575.888 175.775 568.811 158.359 558.052 150.559C557.163 149.915 556.966 148.669 557.61 147.78C558.254 146.89 559.497 146.691 560.389 147.338C572.275 155.956 579.751 173.971 581.442 198.065C583.001 220.28 579.145 244.988 571.125 264.163C567.785 272.155 563.874 278.979 559.437 284.576C563.947 302.187 565.253 324.25 563.027 349.016C560.49 377.252 553.764 405.846 544.246 430.041C544.421 430.213 544.595 430.385 544.77 430.559C562.524 448.286 567.368 466.893 559.166 485.855C550.353 506.233 528.258 522.477 511.273 532.518C492.996 543.327 474.735 550.338 470.422 550.338ZM503.173 414.421C495.704 414.421 489.569 416.518 485.259 418.648C468.009 427.184 455.853 448.2 458.165 465.498C459.772 477.532 468.1 485.62 481.618 488.276C502.738 492.419 519.819 469.01 528.121 454.684C532.25 447.559 536.085 439.612 539.565 431.059C525.827 418.264 513.282 414.421 503.173 414.421ZM513.924 240.096C511.145 240.096 508.454 240.665 505.882 241.82C496.159 246.178 490.029 258.794 491.626 271.164C494.216 291.229 512.936 296.461 520.862 297.78C529.112 299.152 542.698 298.354 555.116 283.669C552.044 272.498 547.594 263.352 541.861 256.742C532.366 245.789 522.709 240.096 513.924 240.096Z" fill="black"/>
<path d="M576.378 395.428C572.664 411.72 570.721 428.411 570.953 445.333C571.07 453.913 571.916 463.065 577.202 469.826C582.975 477.209 593.019 480.14 602.383 479.761C625.262 478.839 644.608 460.728 653.813 439.761C663.017 418.795 664.031 395.279 664.693 372.39C665.213 354.37 665.612 336.11 669.966 318.519C671.833 310.977 685.581 280.523 675.082 275.518C660.645 268.314 626.858 286.342 608.985 316.253C594.262 340.89 582.728 367.572 576.378 395.428Z" fill="black"/>
<path d="M651.476 301.358C650.46 300.792 649.177 301.161 648.613 302.177C624.344 345.913 612.497 391.841 606.829 422.668C606.799 422.838 606.769 423.002 606.739 423.169C603.191 405.404 598.557 367.544 614.364 335.668C614.852 334.682 614.45 333.49 613.467 333.002C612.482 332.514 611.289 332.916 610.801 333.899C599.247 357.2 598.378 383.311 599.684 401.111C600.879 417.398 603.977 429.614 605.005 433.326C600.609 460.945 600.28 479.518 600.278 479.728C600.26 480.89 601.19 481.848 602.352 481.866C602.362 481.866 602.372 481.866 602.383 481.866C603.53 481.866 604.47 480.943 604.487 479.791C604.492 479.387 604.859 461.44 609.151 434.43C609.187 434.299 609.21 434.162 609.217 434.023C610.806 424.083 612.929 412.933 615.756 400.985C621.11 400.186 636.743 395.196 646.539 364.474C646.872 363.426 646.294 362.309 645.248 361.975C644.201 361.639 643.082 362.22 642.749 363.266C634.575 388.897 622.28 395.145 616.8 396.666C623.847 368.161 634.913 335.541 652.292 304.223C652.858 303.205 652.491 301.924 651.476 301.358Z" fill="white"/>
<path d="M365.99 530.582C347.631 530.34 329.922 534.534 316.119 542.387C302.437 550.172 294.132 560.683 292.611 572.073L292.608 572.078L291.365 586.687C291.219 587.511 291.102 588.337 291.022 589.171C289.799 601.769 298.42 613.518 311.472 622.255C323.893 630.57 340.946 634.825 359.492 634.825C379.892 634.825 394.557 629.413 408.557 621.446C423.27 613.073 429.938 603.631 431.16 591.035C431.241 590.204 431.287 589.375 431.299 588.549L431.509 575.274C431.476 575.148 431.438 575.024 431.401 574.9C432.085 566.701 429.162 558.694 422.921 551.726C411.349 538.804 390.067 530.901 365.99 530.582ZM304.203 557.153C304.443 556.875 304.683 556.599 304.933 556.324C304.683 556.597 304.443 556.875 304.203 557.153ZM305.583 555.632C305.838 555.364 306.096 555.096 306.363 554.831C306.096 555.096 305.838 555.364 305.583 555.632ZM300.643 562.024C300.848 561.688 301.05 561.35 301.267 561.016C301.05 561.35 300.848 561.686 300.643 562.024ZM301.74 560.329C301.949 560.023 302.159 559.717 302.381 559.417C302.159 559.72 301.952 560.026 301.74 560.329ZM302.922 558.717C303.147 558.429 303.369 558.138 303.604 557.853C303.369 558.138 303.147 558.426 302.922 558.717ZM307.061 554.154C307.334 553.893 307.609 553.636 307.89 553.38C307.607 553.636 307.331 553.893 307.061 554.154ZM308.632 552.719C308.92 552.466 309.216 552.216 309.512 551.968C309.216 552.216 308.923 552.466 308.632 552.719ZM423.201 559.05C423.229 559.096 423.26 559.139 423.287 559.184C423.262 559.141 423.232 559.096 423.201 559.05ZM424.189 560.738C424.202 560.761 424.212 560.784 424.225 560.806C424.212 560.784 424.202 560.761 424.189 560.738ZM351.336 535.588C351.866 535.522 352.399 535.464 352.935 535.408C352.399 535.466 351.866 535.525 351.336 535.588ZM342.998 536.96C343.493 536.856 343.991 536.758 344.493 536.662C343.991 536.758 343.493 536.856 342.998 536.96ZM345.734 536.432C346.242 536.341 346.75 536.255 347.26 536.171C346.75 536.257 346.239 536.341 345.734 536.432ZM348.513 535.974C349.031 535.896 349.552 535.825 350.072 535.754C349.552 535.825 349.031 535.896 348.513 535.974ZM365.935 534.794C364.939 534.782 363.946 534.784 362.958 534.797C363.946 534.782 364.939 534.782 365.935 534.794ZM361.965 534.822C361.311 534.837 360.656 534.852 360.007 534.878C360.656 534.852 361.311 534.837 361.965 534.822ZM358.837 534.941C358.251 534.971 357.665 535.002 357.084 535.039C357.665 534.999 358.251 534.971 358.837 534.941ZM355.851 535.135C355.297 535.178 354.742 535.224 354.191 535.277C354.742 535.224 355.297 535.181 355.851 535.135ZM341.772 537.22C341.279 537.329 340.792 537.44 340.307 537.556C340.792 537.442 341.282 537.329 341.772 537.22ZM339.104 537.847C338.619 537.968 338.139 538.094 337.661 538.22C338.139 538.094 338.619 537.968 339.104 537.847ZM336.491 538.536C336.011 538.67 335.536 538.812 335.061 538.953C335.534 538.812 336.009 538.67 336.491 538.536ZM333.932 539.292C333.452 539.441 332.979 539.598 332.504 539.754C332.979 539.598 333.452 539.441 333.932 539.292ZM331.433 540.108C330.945 540.275 330.468 540.452 329.988 540.626C330.465 540.449 330.945 540.275 331.433 540.108ZM328.995 540.985C328.477 541.179 327.969 541.384 327.459 541.589C327.966 541.384 328.474 541.179 328.995 540.985ZM326.62 541.92C325.92 542.208 325.228 542.506 324.545 542.811C325.228 542.508 325.917 542.21 326.62 541.92ZM324.31 542.913C323.555 543.251 322.815 543.6 322.084 543.959C322.815 543.602 323.557 543.251 324.31 542.913ZM310.297 551.326C310.603 551.081 310.916 550.839 311.232 550.596C310.919 550.839 310.606 551.081 310.297 551.326ZM312.056 549.977C312.382 549.737 312.713 549.502 313.046 549.267C312.713 549.505 312.379 549.74 312.056 549.977ZM313.898 548.676C314.244 548.441 314.598 548.211 314.952 547.984C314.598 548.213 314.244 548.443 313.898 548.676ZM315.823 547.423C316.192 547.193 316.571 546.965 316.95 546.74C316.574 546.965 316.195 547.19 315.823 547.423ZM317.834 546.217C318.236 545.985 318.648 545.76 319.06 545.535C318.648 545.76 318.236 545.985 317.834 546.217ZM319.922 545.06C320.384 544.815 320.856 544.578 321.326 544.343C320.854 544.58 320.381 544.818 319.922 545.06ZM300.264 562.646C300.006 563.093 299.769 563.545 299.536 564C299.769 563.548 300.006 563.093 300.264 562.646ZM425.048 562.479C425.018 562.413 424.99 562.35 424.96 562.284C424.99 562.348 425.018 562.413 425.048 562.479ZM425.693 564.023C425.69 564.015 425.688 564.01 425.685 564.003C425.688 564.008 425.69 564.015 425.693 564.023ZM422.345 557.762C422.251 557.628 422.155 557.494 422.057 557.36C422.155 557.494 422.251 557.628 422.345 557.762ZM421.269 556.311C421.162 556.178 421.061 556.044 420.953 555.91C421.059 556.044 421.162 556.178 421.269 556.311Z" fill="black"/>
<path d="M419.788 554.535C408.986 542.475 388.854 535.095 365.935 534.794C333.068 534.362 304.355 548.747 297.914 567.815C297.288 569.672 296.871 571.572 296.684 573.51C295.991 580.641 298.551 587.672 304.084 593.85C314.886 605.91 335.018 613.29 357.938 613.591C394.003 614.066 425.069 596.708 427.189 574.875C427.878 567.747 425.319 560.713 419.788 554.535Z" fill="white"/>
<path d="M403.019 559.811C395.502 551.417 380.88 546.073 364.861 545.861C341.565 545.555 321.223 555.677 316.69 569.094C316.253 570.39 315.962 571.717 315.831 573.066C315.351 578.005 317.135 582.887 320.985 587.187C328.502 595.581 343.124 600.925 359.143 601.137C384.69 601.473 406.685 589.274 408.17 573.93C408.65 568.995 406.869 564.111 403.019 559.811Z" fill="white"/>
<path d="M364.916 541.652C351.656 541.477 338.854 544.509 328.873 550.189C318.6 556.036 312.48 564.015 311.642 572.661C311.045 578.804 313.193 584.799 317.85 589.999C326.253 599.381 341.671 605.121 359.09 605.349C372.35 605.523 385.152 602.491 395.133 596.811C403.443 592.081 409.037 585.957 411.314 579.21C411.852 577.619 412.205 575.992 412.365 574.339C412.961 568.197 410.813 562.201 406.157 557.001C397.75 547.62 382.333 541.882 364.916 541.652ZM359.143 601.139C343.124 600.927 328.502 595.583 320.985 587.19C317.135 582.889 315.353 578.008 315.831 573.068C315.962 571.716 316.253 570.392 316.69 569.096C321.22 555.68 341.562 545.555 364.861 545.864C380.88 546.073 395.502 551.42 403.018 559.813C406.869 564.111 408.65 568.995 408.173 573.935C406.685 589.277 384.69 601.475 359.143 601.139Z" fill="black"/>
<path d="M362.268 561.86L362.137 561.855C361.339 556.278 358.158 553.58 354.241 553.403C350.262 553.221 346.798 555.543 344.529 558.866C343.081 560.821 342.017 562.984 341.14 565.713L334.445 565.407L333.482 570.549L339.816 570.837C339.66 571.57 339.508 572.338 339.357 573.141C339.134 574.324 338.93 575.524 338.743 576.712L332.383 576.424L331.42 581.56L338.03 581.861C337.767 584.125 337.613 586.091 337.603 587.43L380.812 589.395C381.249 588.036 381.779 586.184 382.338 583.877L388.088 584.14L389.051 579.003L383.46 578.748C383.54 578.339 383.621 577.924 383.7 577.497C384.008 575.847 384.25 574.311 384.437 572.869L390.15 573.129L391.113 567.987L384.877 567.704C385.011 563.459 384.447 560.372 383.305 558.153C381.653 555.015 378.899 552.85 374.919 552.668C369.239 552.405 364.684 556.354 362.268 561.86ZM346.239 576.81C346.282 575.865 346.411 574.486 346.858 572.1C347.793 567.11 350.082 564.369 353.412 564.52C356.674 564.67 358.248 567.876 357.165 573.662L356.487 577.278L346.239 576.81ZM376.931 573.904C376.579 575.784 376.334 577.086 376.001 578.164L363.597 577.601L364.302 573.841C365.331 568.348 367.921 564.015 372.36 564.217C376.996 564.427 377.865 568.914 376.931 573.904Z" fill="black"/>
<path d="M353.349 507.756C334.991 507.514 317.281 511.708 303.478 519.561C289.796 527.346 281.491 537.857 279.97 549.247L279.967 549.252L278.724 563.861C278.578 564.685 278.461 565.511 278.381 566.345C277.158 578.943 285.779 590.692 298.831 599.429C311.252 607.744 328.305 611.999 346.851 611.999C367.251 611.999 381.916 606.587 395.916 598.62C410.629 590.247 417.297 580.805 418.52 568.209C418.601 567.376 418.646 566.549 418.659 565.723L418.868 552.448C418.836 552.322 418.798 552.198 418.76 552.074C419.444 543.875 416.521 535.868 410.28 528.9C398.708 515.978 377.426 508.075 353.349 507.756ZM291.562 534.327C291.802 534.049 292.042 533.773 292.292 533.498C292.042 533.771 291.802 534.049 291.562 534.327ZM292.942 532.808C293.197 532.54 293.455 532.273 293.722 532.007C293.455 532.27 293.197 532.538 292.942 532.808ZM288.002 539.198C288.207 538.862 288.409 538.524 288.626 538.19C288.409 538.524 288.207 538.86 288.002 539.198ZM289.099 537.503C289.308 537.197 289.518 536.891 289.74 536.591C289.518 536.894 289.311 537.2 289.099 537.503ZM290.281 535.891C290.506 535.603 290.728 535.312 290.963 535.027C290.728 535.312 290.506 535.6 290.281 535.891ZM294.42 531.328C294.693 531.067 294.968 530.81 295.249 530.555C294.966 530.81 294.69 531.067 294.42 531.328ZM295.991 529.893C296.279 529.64 296.575 529.39 296.871 529.142C296.575 529.39 296.282 529.64 295.991 529.893ZM410.561 536.224C410.588 536.27 410.619 536.313 410.647 536.358C410.621 536.315 410.591 536.27 410.561 536.224ZM411.549 537.912C411.561 537.935 411.571 537.958 411.584 537.98C411.571 537.958 411.561 537.935 411.549 537.912ZM338.695 512.764C339.225 512.699 339.758 512.64 340.294 512.585C339.758 512.64 339.225 512.699 338.695 512.764ZM330.357 514.134C330.852 514.03 331.35 513.932 331.852 513.836C331.35 513.932 330.852 514.03 330.357 514.134ZM333.093 513.606C333.601 513.515 334.109 513.429 334.619 513.345C334.109 513.431 333.598 513.517 333.093 513.606ZM335.872 513.148C336.39 513.07 336.911 512.999 337.431 512.929C336.911 512.999 336.39 513.07 335.872 513.148ZM353.294 511.968C352.298 511.956 351.305 511.958 350.317 511.971C351.305 511.956 352.298 511.956 353.294 511.968ZM349.324 511.996C348.67 512.011 348.016 512.026 347.366 512.052C348.016 512.026 348.67 512.011 349.324 511.996ZM346.196 512.115C345.61 512.145 345.024 512.176 344.443 512.213C345.024 512.173 345.61 512.145 346.196 512.115ZM343.21 512.309C342.656 512.352 342.101 512.398 341.55 512.451C342.101 512.398 342.656 512.355 343.21 512.309ZM329.131 514.394C328.638 514.503 328.151 514.614 327.666 514.73C328.151 514.616 328.641 514.503 329.131 514.394ZM326.463 515.021C325.978 515.142 325.498 515.268 325.02 515.395C325.498 515.268 325.978 515.142 326.463 515.021ZM323.85 515.71C323.37 515.844 322.895 515.986 322.42 516.127C322.893 515.986 323.368 515.844 323.85 515.71ZM321.291 516.466C320.811 516.615 320.338 516.772 319.863 516.928C320.338 516.772 320.811 516.615 321.291 516.466ZM318.792 517.282C318.304 517.449 317.827 517.626 317.347 517.8C317.824 517.623 318.304 517.449 318.792 517.282ZM316.354 518.159C315.836 518.353 315.328 518.558 314.818 518.763C315.325 518.558 315.833 518.353 316.354 518.159ZM313.979 519.094C313.279 519.382 312.587 519.68 311.904 519.985C312.587 519.682 313.276 519.384 313.979 519.094ZM311.669 520.087C310.914 520.425 310.174 520.774 309.443 521.133C310.174 520.776 310.916 520.425 311.669 520.087ZM297.656 528.5C297.962 528.255 298.276 528.013 298.591 527.77C298.278 528.013 297.965 528.255 297.656 528.5ZM299.415 527.151C299.741 526.911 300.072 526.676 300.405 526.441C300.072 526.679 299.738 526.914 299.415 527.151ZM301.257 525.85C301.603 525.615 301.957 525.385 302.311 525.158C301.957 525.387 301.603 525.617 301.257 525.85ZM303.182 524.597C303.551 524.367 303.93 524.139 304.309 523.914C303.933 524.139 303.554 524.364 303.182 524.597ZM305.194 523.391C305.595 523.159 306.007 522.934 306.419 522.709C306.007 522.934 305.595 523.159 305.194 523.391ZM307.281 522.234C307.743 521.989 308.215 521.752 308.685 521.517C308.213 521.754 307.74 521.992 307.281 522.234ZM287.623 539.82C287.365 540.267 287.128 540.719 286.895 541.174C287.128 540.722 287.365 540.267 287.623 539.82ZM412.408 539.653C412.377 539.587 412.35 539.524 412.319 539.459C412.35 539.522 412.377 539.587 412.408 539.653ZM413.052 541.197C413.049 541.189 413.047 541.184 413.044 541.177C413.047 541.184 413.049 541.189 413.052 541.197ZM409.704 534.936C409.611 534.802 409.515 534.668 409.416 534.534C409.515 534.668 409.611 534.802 409.704 534.936ZM408.628 533.485C408.522 533.352 408.421 533.218 408.312 533.084C408.418 533.218 408.522 533.352 408.628 533.485Z" fill="black"/>
<path d="M407.147 531.709C396.346 519.649 376.213 512.269 353.294 511.968C320.427 511.536 291.714 525.921 285.273 544.989C284.647 546.847 284.23 548.747 284.043 550.685C283.35 557.815 285.91 564.847 291.443 571.024C302.245 583.084 322.377 590.464 345.297 590.765C381.362 591.24 412.428 573.882 414.548 552.049C415.237 544.921 412.678 537.887 407.147 531.709Z" fill="white"/>
<path d="M390.378 536.985C382.861 528.591 368.239 523.247 352.22 523.035C328.924 522.729 308.582 532.851 304.049 546.268C303.612 547.564 303.321 548.891 303.19 550.24C302.71 555.179 304.494 560.061 308.344 564.361C315.861 572.755 330.483 578.099 346.502 578.311C372.049 578.647 394.044 566.448 395.53 551.104C396.01 546.169 394.228 541.285 390.378 536.985Z" fill="white"/>
<path d="M352.275 518.826C339.015 518.651 326.213 521.683 316.232 527.363C305.959 533.21 299.839 541.189 299.001 549.836C298.404 555.978 300.552 561.974 305.209 567.174C313.612 576.555 329.03 582.296 346.449 582.523C359.709 582.697 372.511 579.665 382.492 573.985C390.802 569.256 396.396 563.131 398.673 556.385C399.211 554.793 399.564 553.166 399.724 551.513C400.32 545.371 398.172 539.375 393.516 534.175C385.109 524.794 369.692 519.056 352.275 518.826ZM346.502 578.314C330.483 578.101 315.861 572.757 308.344 564.364C304.494 560.063 302.712 555.182 303.19 550.242C303.321 548.891 303.612 547.567 304.049 546.27C308.579 532.854 328.921 522.73 352.22 523.038C368.239 523.247 382.861 528.594 390.378 536.987C394.228 541.285 396.009 546.169 395.532 551.109C394.044 566.451 372.049 578.65 346.502 578.314Z" fill="black"/>
<path d="M349.627 539.034L349.496 539.029C348.698 533.453 345.517 530.754 341.6 530.577C337.621 530.395 334.157 532.717 331.888 536.04C330.44 537.996 329.376 540.158 328.499 542.887L321.804 542.581L320.841 547.723L327.176 548.011C327.019 548.744 326.867 549.512 326.716 550.316C326.493 551.498 326.289 552.698 326.102 553.886L319.742 553.598L318.779 558.734L325.389 559.035C325.126 561.299 324.972 563.265 324.962 564.604L368.171 566.57C368.608 565.21 369.138 563.358 369.697 561.051L375.447 561.314L376.41 556.177L370.819 555.922C370.899 555.513 370.98 555.098 371.059 554.671C371.367 553.022 371.609 551.485 371.796 550.043L377.509 550.303L378.472 545.161L372.236 544.878C372.37 540.633 371.807 537.546 370.665 535.327C369.012 532.189 366.258 530.024 362.278 529.842C356.599 529.579 352.043 533.528 349.627 539.034ZM333.598 553.984C333.641 553.039 333.77 551.66 334.217 549.275C335.152 544.284 337.441 541.543 340.772 541.695C344.033 541.844 345.608 545.05 344.524 550.836L343.846 554.452L333.598 553.984ZM364.29 551.079C363.939 552.958 363.693 554.262 363.36 555.338L350.957 554.775L351.661 551.015C352.69 545.522 355.28 541.189 359.719 541.391C364.355 541.601 365.225 546.088 364.29 551.079Z" fill="black"/>
<path d="M383.25 479.89C364.891 479.647 347.182 483.842 333.379 491.694C319.697 499.479 311.392 509.99 309.87 521.38L309.868 521.385L308.625 535.994C308.478 536.818 308.362 537.644 308.281 538.478C307.058 551.076 315.679 562.825 328.732 571.562C341.153 579.878 358.206 584.133 376.751 584.133C397.152 584.133 411.816 578.72 425.817 570.754C440.529 562.38 447.197 552.938 448.42 540.343C448.501 539.509 448.547 538.683 448.559 537.857L448.769 524.581C448.736 524.455 448.698 524.331 448.66 524.208C449.345 516.008 446.422 508.001 440.181 501.033C428.611 488.112 407.327 480.208 383.25 479.89ZM321.465 506.46C321.705 506.182 321.945 505.904 322.196 505.631C321.943 505.904 321.703 506.182 321.465 506.46ZM322.842 504.939C323.098 504.671 323.355 504.404 323.623 504.138C323.358 504.404 323.1 504.671 322.842 504.939ZM317.905 511.329C318.11 510.993 318.312 510.654 318.529 510.321C318.31 510.654 318.11 510.993 317.905 511.329ZM319.002 509.636C319.212 509.331 319.421 509.025 319.644 508.724C319.421 509.025 319.212 509.331 319.002 509.636ZM320.184 508.022C320.409 507.734 320.632 507.443 320.867 507.158C320.632 507.446 320.407 507.734 320.184 508.022ZM324.32 503.461C324.593 503.201 324.869 502.943 325.149 502.688C324.869 502.943 324.593 503.201 324.32 503.461ZM325.895 502.026C326.183 501.773 326.478 501.523 326.774 501.275C326.478 501.523 326.183 501.773 325.895 502.026ZM440.464 508.358C440.492 508.403 440.522 508.446 440.55 508.492C440.522 508.446 440.492 508.403 440.464 508.358ZM441.452 510.046C441.464 510.068 441.474 510.091 441.487 510.114C441.474 510.089 441.462 510.066 441.452 510.046ZM368.598 484.895C369.128 484.829 369.662 484.771 370.197 484.716C369.662 484.774 369.128 484.829 368.598 484.895ZM360.257 486.267C360.752 486.164 361.25 486.065 361.753 485.969C361.253 486.065 360.755 486.164 360.257 486.267ZM362.994 485.739C363.501 485.648 364.009 485.562 364.52 485.479C364.009 485.562 363.501 485.648 362.994 485.739ZM365.776 485.282C366.293 485.203 366.814 485.133 367.334 485.062C366.811 485.133 366.291 485.203 365.776 485.282ZM383.194 484.102C382.199 484.089 381.206 484.092 380.218 484.104C381.208 484.089 382.199 484.087 383.194 484.102ZM379.225 484.13C378.571 484.145 377.916 484.16 377.267 484.185C377.919 484.16 378.571 484.145 379.225 484.13ZM376.099 484.246C375.513 484.276 374.927 484.306 374.346 484.344C374.927 484.306 375.513 484.276 376.099 484.246ZM373.113 484.443C372.56 484.486 372.004 484.531 371.453 484.584C372.004 484.531 372.557 484.488 373.113 484.443ZM359.034 486.527C358.542 486.636 358.054 486.747 357.569 486.863C358.054 486.747 358.542 486.636 359.034 486.527ZM356.366 487.154C355.881 487.275 355.401 487.402 354.923 487.528C355.401 487.399 355.881 487.273 356.366 487.154ZM353.751 487.844C353.271 487.978 352.796 488.119 352.321 488.261C352.796 488.119 353.271 487.978 353.751 487.844ZM351.194 488.597C350.714 488.746 350.242 488.902 349.767 489.059C350.239 488.902 350.714 488.748 351.194 488.597ZM348.693 489.415C348.205 489.582 347.727 489.759 347.247 489.933C347.727 489.756 348.208 489.582 348.693 489.415ZM346.254 490.292C345.736 490.487 345.229 490.691 344.718 490.896C345.229 490.691 345.736 490.487 346.254 490.292ZM343.879 491.227C343.18 491.515 342.487 491.813 341.805 492.119C342.49 491.813 343.18 491.515 343.879 491.227ZM341.573 492.22C340.817 492.559 340.077 492.907 339.347 493.266C340.077 492.907 340.817 492.559 341.573 492.22ZM327.56 500.634C327.865 500.389 328.179 500.146 328.495 499.904C328.179 500.146 327.868 500.389 327.56 500.634ZM329.316 499.285C329.642 499.044 329.973 498.809 330.306 498.575C329.973 498.809 329.642 499.047 329.316 499.285ZM331.158 497.983C331.504 497.748 331.857 497.518 332.211 497.291C331.857 497.518 331.504 497.748 331.158 497.983ZM333.085 496.73C333.454 496.5 333.833 496.273 334.212 496.048C333.836 496.273 333.457 496.498 333.085 496.73ZM335.094 495.522C335.496 495.29 335.908 495.065 336.32 494.84C335.91 495.067 335.496 495.292 335.094 495.522ZM337.181 494.368C337.644 494.123 338.116 493.885 338.586 493.65C338.116 493.888 337.644 494.123 337.181 494.368ZM317.524 511.953C317.266 512.4 317.029 512.853 316.796 513.308C317.029 512.853 317.269 512.4 317.524 511.953ZM442.308 511.784C442.278 511.718 442.25 511.655 442.22 511.589C442.25 511.655 442.28 511.721 442.308 511.784ZM442.955 513.328C442.953 513.32 442.95 513.315 442.947 513.308C442.947 513.315 442.953 513.323 442.955 513.328ZM439.607 507.069C439.514 506.935 439.418 506.801 439.319 506.667C439.415 506.801 439.514 506.935 439.607 507.069ZM438.528 505.619C438.422 505.485 438.321 505.351 438.213 505.217C438.321 505.351 438.425 505.485 438.528 505.619Z" fill="black"/>
<path d="M437.048 503.843C426.246 491.783 406.114 484.402 383.194 484.102C350.327 483.67 321.614 498.054 315.174 517.123C314.547 518.98 314.13 520.88 313.943 522.818C313.251 529.948 315.811 536.98 321.344 543.157C332.146 555.217 352.278 562.598 375.197 562.898C411.263 563.373 442.328 546.015 444.448 524.182C445.141 517.052 442.581 510.02 437.048 503.843Z" fill="white"/>
<path d="M420.278 509.118C412.761 500.725 398.14 495.381 382.12 495.169C358.825 494.863 338.482 504.985 333.95 518.401C333.512 519.697 333.222 521.024 333.091 522.373C332.61 527.313 334.394 532.194 338.245 536.495C345.762 544.888 360.384 550.232 376.403 550.444C401.95 550.78 423.944 538.582 425.43 523.237C425.913 518.3 424.131 513.416 420.278 509.118Z" fill="white"/>
<path d="M382.176 490.959C368.916 490.785 356.114 493.817 346.133 499.497C335.86 505.343 329.74 513.323 328.901 521.969C328.305 528.111 330.453 534.107 335.109 539.307C343.513 548.688 358.931 554.429 376.35 554.656C389.61 554.831 402.412 551.799 412.392 546.119C420.703 541.389 426.297 535.264 428.573 528.518C429.111 526.926 429.465 525.299 429.624 523.647C430.221 517.504 428.073 511.509 423.416 506.309C415.013 496.925 399.595 491.187 382.176 490.959ZM376.405 550.447C360.386 550.235 345.764 544.891 338.247 536.497C334.397 532.197 332.616 527.315 333.093 522.376C333.224 521.024 333.515 519.7 333.952 518.404C338.482 504.987 358.825 494.863 382.123 495.171C398.142 495.381 412.764 500.727 420.281 509.121C424.131 513.419 425.913 518.303 425.435 523.242C423.947 538.584 401.95 550.783 376.405 550.447Z" fill="black"/>
<path d="M379.531 511.167L379.399 511.162C378.601 505.586 375.42 502.888 371.503 502.711C367.524 502.529 364.06 504.851 361.791 508.173C360.343 510.129 359.279 512.292 358.403 515.021L351.707 514.715L350.744 519.857L357.079 520.145C356.922 520.877 356.77 521.646 356.619 522.449C356.396 523.631 356.192 524.832 356.005 526.019L349.645 525.731L348.683 530.868L355.292 531.169C355.03 533.432 354.875 535.398 354.865 536.737L398.074 538.703C398.511 537.344 399.042 535.492 399.6 533.185L405.351 533.445L406.313 528.308L400.722 528.053C400.803 527.644 400.884 527.229 400.962 526.802C401.27 525.153 401.513 523.616 401.7 522.174L407.412 522.434L408.375 517.292L402.139 517.009C402.273 512.764 401.71 509.677 400.568 507.458C398.915 504.32 396.161 502.155 392.182 501.973C386.502 501.713 381.944 505.662 379.531 511.167ZM363.501 526.118C363.544 525.173 363.673 523.793 364.12 521.408C365.055 516.418 367.345 513.676 370.675 513.828C373.937 513.977 375.511 517.183 374.427 522.97L373.75 526.585L363.501 526.118ZM394.193 523.21C393.842 525.089 393.597 526.391 393.263 527.47L380.86 526.906L381.565 523.146C382.593 517.653 385.183 513.32 389.622 513.522C394.256 513.735 395.128 518.222 394.193 523.21Z" fill="black"/>
<path d="M483.667 393.513C483.667 393.455 483.672 393.397 483.672 393.339C483.672 393.185 483.662 393.031 483.66 392.876L483.655 392.583H483.65C483.19 381.362 472.499 371.003 453.418 363.342C434.519 355.755 409.434 351.576 382.785 351.576C356.139 351.576 331.054 355.755 312.152 363.342C292.762 371.127 282.034 381.699 281.905 393.132H281.9V393.316C281.9 393.324 281.9 393.334 281.9 393.341C281.9 393.349 281.9 393.357 281.9 393.362L281.812 424.394C281.812 446.298 325.978 464.053 382.742 464.053C439.509 464.053 484.092 447.733 484.092 425.829L483.667 393.513Z" fill="black"/>
<path d="M451.851 367.251C433.437 359.858 408.911 355.787 382.787 355.787C356.664 355.787 332.138 359.858 313.724 367.251C296.176 374.295 286.112 383.806 286.112 393.339C286.112 402.874 296.176 412.382 313.724 419.429C332.138 426.822 356.664 430.893 382.787 430.893C408.911 430.893 433.437 426.822 451.851 419.429C469.399 412.385 479.463 402.874 479.463 393.339C479.463 383.806 469.399 374.295 451.851 367.251Z" fill="white"/>
<path d="M415.69 349.89C414.591 349.89 413.701 348.998 413.701 347.902V206.765C413.701 205.666 414.593 204.776 415.69 204.776C416.786 204.776 417.678 205.668 417.678 206.765V347.902C417.678 348.998 416.789 349.89 415.69 349.89ZM379.846 257.212C378.747 257.212 377.858 256.32 377.858 255.224V168.167C377.858 167.068 378.75 166.179 379.846 166.179C380.945 166.179 381.835 167.071 381.835 168.167V255.224C381.835 256.32 380.945 257.212 379.846 257.212Z" fill="black"/>
<path d="M426.635 262.041C420.991 244.571 411.354 229.131 399.496 218.567C387.742 208.096 375.129 203.586 363.85 205.792H363.845L349.158 207.957C348.331 208.081 347.51 208.238 346.694 208.427C334.369 211.3 325.321 221.23 321.218 236.392C317.314 250.82 318.304 268.486 324.005 286.135C329.707 303.784 339.47 319.406 351.497 330.122C364.136 341.381 377.886 346.002 390.211 343.129C391.024 342.939 391.825 342.717 392.611 342.464L405.255 338.417C405.366 338.343 405.467 338.27 405.576 338.194C413.562 336.219 420.212 330.89 424.819 322.746C433.359 307.647 434.038 284.952 426.635 262.041ZM381.696 212.003C382.035 212.141 382.376 212.28 382.714 212.43C382.373 212.278 382.035 212.139 381.696 212.003ZM383.576 212.821C383.912 212.978 384.248 213.137 384.584 213.304C384.248 213.137 383.912 212.978 383.576 212.821ZM375.94 210.188C376.324 210.274 376.708 210.358 377.095 210.456C376.711 210.358 376.327 210.274 375.94 210.188ZM377.896 210.686C378.252 210.787 378.608 210.888 378.967 211.002C378.611 210.888 378.252 210.787 377.896 210.686ZM379.804 211.29C380.15 211.409 380.493 211.53 380.839 211.659C380.496 211.527 380.15 211.409 379.804 211.29ZM385.451 213.748C385.784 213.923 386.118 214.102 386.449 214.287C386.115 214.102 385.782 213.925 385.451 213.748ZM387.313 214.782C387.644 214.974 387.975 215.173 388.306 215.376C387.975 215.171 387.646 214.974 387.313 214.782ZM417.966 325.354C417.933 325.394 417.901 325.437 417.868 325.478C417.901 325.44 417.933 325.397 417.966 325.354ZM416.685 326.829C416.668 326.847 416.65 326.865 416.632 326.885C416.65 326.865 416.668 326.847 416.685 326.829ZM417.203 249.758C417.436 250.241 417.661 250.729 417.885 251.216C417.661 250.729 417.436 250.241 417.203 249.758ZM413.239 242.297C413.494 242.734 413.749 243.174 413.999 243.619C413.747 243.174 413.494 242.734 413.239 242.297ZM414.613 244.72C414.861 245.173 415.106 245.627 415.349 246.085C415.104 245.627 414.861 245.173 414.613 244.72ZM415.935 247.209C416.175 247.674 416.407 248.144 416.642 248.616C416.41 248.144 416.175 247.674 415.935 247.209ZM422.628 263.337C422.322 262.389 422.004 261.449 421.673 260.517C422.004 261.449 422.322 262.387 422.628 263.337ZM421.332 259.582C421.109 258.968 420.885 258.352 420.652 257.745C420.885 258.354 421.107 258.968 421.332 259.582ZM420.22 256.659C420.003 256.113 419.788 255.567 419.566 255.029C419.788 255.567 420.003 256.113 420.22 256.659ZM419.078 253.892C418.858 253.382 418.641 252.869 418.414 252.366C418.641 252.869 418.858 253.382 419.078 253.892ZM412.6 241.221C412.339 240.789 412.077 240.362 411.811 239.94C412.077 240.362 412.339 240.789 412.6 241.221ZM411.152 238.891C410.882 238.472 410.609 238.057 410.336 237.643C410.609 238.057 410.884 238.472 411.152 238.891ZM409.661 236.638C409.381 236.226 409.095 235.819 408.81 235.415C409.095 235.819 409.381 236.226 409.661 236.638ZM408.13 234.454C407.834 234.048 407.536 233.648 407.236 233.249C407.534 233.648 407.834 234.048 408.13 234.454ZM406.556 232.347C406.243 231.938 405.922 231.541 405.603 231.142C405.922 231.541 406.243 231.938 406.556 232.347ZM404.944 230.316C404.593 229.886 404.236 229.472 403.883 229.055C404.239 229.472 404.593 229.889 404.944 230.316ZM403.299 228.365C402.801 227.794 402.298 227.236 401.791 226.685C402.296 227.236 402.801 227.794 403.299 228.365ZM401.619 226.498C401.055 225.892 400.487 225.3 399.916 224.722C400.489 225.3 401.055 225.892 401.619 226.498ZM389.165 215.914C389.496 216.126 389.824 216.343 390.155 216.566C389.827 216.343 389.496 216.126 389.165 215.914ZM391.004 217.147C391.335 217.379 391.664 217.617 391.992 217.859C391.664 217.617 391.335 217.377 391.004 217.147ZM392.826 218.476C393.159 218.728 393.49 218.991 393.819 219.254C393.49 218.989 393.159 218.728 392.826 218.476ZM394.633 219.901C394.969 220.176 395.305 220.464 395.641 220.75C395.305 220.464 394.969 220.176 394.633 219.901ZM396.416 221.417C396.765 221.723 397.109 222.043 397.455 222.359C397.109 222.043 396.765 221.725 396.416 221.417ZM398.18 223.026C398.559 223.385 398.935 223.757 399.309 224.128C398.935 223.757 398.559 223.385 398.18 223.026ZM375.23 210.027C374.725 209.926 374.22 209.845 373.714 209.771C374.217 209.845 374.722 209.926 375.23 210.027ZM415.311 328.199C415.364 328.151 415.414 328.103 415.467 328.052C415.417 328.103 415.364 328.151 415.311 328.199ZM414.055 329.303C414.06 329.298 414.065 329.293 414.07 329.29C414.065 329.295 414.06 329.301 414.055 329.303ZM418.914 324.131C419.01 324 419.106 323.866 419.202 323.729C419.108 323.863 419.012 324 418.914 324.131ZM419.945 322.645C420.038 322.504 420.132 322.362 420.223 322.218C420.132 322.362 420.036 322.504 419.945 322.645Z" fill="black"/>
<path d="M421.152 320.674C429.122 306.583 429.672 285.147 422.628 263.337C412.521 232.059 389.708 209.456 369.581 209.456C367.62 209.456 365.687 209.67 363.792 210.113C356.816 211.737 350.972 216.412 346.889 223.63C338.919 237.724 338.369 259.158 345.413 280.968C356.503 315.29 382.886 339.17 404.249 334.192C411.225 332.567 417.072 327.893 421.152 320.674Z" fill="white"/>
<path d="M410.791 306.475C416.337 296.666 416.723 281.104 411.799 265.861C404.636 243.692 388.538 227.655 374.376 227.655C373.009 227.655 371.66 227.804 370.339 228.113C365.505 229.239 361.45 232.489 358.607 237.514C353.061 247.323 352.675 262.885 357.599 278.13C365.455 302.442 384.048 319.378 399.062 315.879C403.893 314.749 407.948 311.498 410.791 306.475Z" fill="white"/>
<path d="M415.806 264.565C411.73 251.944 404.762 240.786 396.186 233.148C387.361 225.285 377.843 222.041 369.381 224.012C363.37 225.412 358.377 229.363 354.941 235.44C348.741 246.403 348.235 262.847 353.592 279.422C357.67 292.042 364.636 303.2 373.211 310.838C380.352 317.198 387.944 320.538 395.064 320.538C396.745 320.538 398.4 320.351 400.017 319.975C406.028 318.575 411.02 314.621 414.457 308.544C420.657 297.583 421.16 281.14 415.806 264.565ZM357.597 278.128C352.672 262.884 353.059 247.32 358.605 237.512C361.447 232.489 365.502 229.237 370.336 228.11C371.657 227.802 373.007 227.653 374.374 227.653C388.536 227.653 404.636 243.687 411.796 265.858C416.721 281.102 416.334 296.666 410.788 306.472C407.948 311.495 403.89 314.747 399.057 315.874C384.046 319.376 365.452 302.439 357.597 278.128Z" fill="black"/>
<path d="M395.812 268.522L395.777 268.395C400.805 265.853 402.344 261.977 401.26 258.21C400.158 254.38 396.851 251.843 392.978 250.757C390.661 250.011 388.27 249.695 385.408 249.736L383.553 243.293L378.373 244.026L380.127 250.117C379.382 250.206 378.608 250.304 377.795 250.421C376.602 250.59 375.4 250.779 374.217 250.979L372.456 244.862L367.281 245.595L369.111 251.952C366.882 252.427 364.969 252.909 363.699 253.329L375.66 294.895C377.087 294.875 379.01 294.784 381.375 294.577L382.967 300.107L388.142 299.375L386.593 293.995C387.007 293.94 387.426 293.884 387.856 293.824C389.519 293.589 391.05 293.326 392.477 293.043L394.059 298.538L399.239 297.806L397.513 291.807C401.576 290.577 404.322 289.053 406.061 287.262C408.506 284.692 409.676 281.39 408.575 277.562C407.001 272.102 401.801 269.05 395.812 268.522ZM376.519 258.117C377.428 257.857 378.778 257.536 381.181 257.195C386.206 256.485 389.536 257.776 390.458 260.979C391.363 264.118 388.826 266.634 383 267.458L379.359 267.973L376.519 258.117ZM389.092 286.266C387.197 286.534 385.885 286.721 384.758 286.749L381.325 274.818L385.112 274.282C390.645 273.499 395.577 274.568 396.808 278.838C398.092 283.295 394.117 285.556 389.092 286.266ZM321.336 410.417C320.237 410.417 319.348 409.525 319.348 408.428V321.372C319.348 320.273 320.24 319.383 321.336 319.383C322.436 319.383 323.325 320.275 323.325 321.372V408.428C323.325 409.527 322.436 410.417 321.336 410.417ZM321.336 199.511C320.237 199.511 319.348 198.619 319.348 197.522V143.692C319.348 142.592 320.24 141.703 321.336 141.703C322.436 141.703 323.325 142.595 323.325 143.692V197.522C323.325 198.619 322.436 199.511 321.336 199.511ZM442.725 410.417C441.626 410.417 440.737 409.525 440.737 408.428V321.372C440.737 320.273 441.629 319.383 442.725 319.383C443.822 319.383 444.714 320.275 444.714 321.372V408.428C444.716 409.527 443.824 410.417 442.725 410.417ZM442.725 301.3C441.626 301.3 440.737 300.408 440.737 299.312V138.868C440.737 137.769 441.629 136.88 442.725 136.88C443.822 136.88 444.714 137.772 444.714 138.868V299.312C444.716 300.408 443.824 301.3 442.725 301.3ZM465.713 344.827C464.614 344.827 463.724 343.935 463.724 342.838V255.782C463.724 254.683 464.616 253.794 465.713 253.794C466.809 253.794 467.701 254.686 467.701 255.782V342.838C467.704 343.938 466.812 344.827 465.713 344.827ZM465.713 230.748C464.614 230.748 463.724 229.856 463.724 228.759V180.303C463.724 179.204 464.616 178.314 465.713 178.314C466.809 178.314 467.701 179.206 467.701 180.303V228.757C467.704 229.856 466.812 230.748 465.713 230.748ZM290.531 320.493C289.432 320.493 288.543 319.601 288.543 318.504V187.218C288.543 186.119 289.435 185.23 290.531 185.23C291.628 185.23 292.52 186.122 292.52 187.218V318.502C292.522 319.601 291.63 320.493 290.531 320.493ZM290.531 364.09C289.432 364.09 288.543 363.198 288.543 362.102V337.522C288.543 336.423 289.435 335.534 290.531 335.534C291.628 335.534 292.52 336.426 292.52 337.522V362.102C292.522 363.198 291.63 364.09 290.531 364.09ZM349.19 342.871C348.091 342.871 347.202 341.979 347.202 340.883V181.015C347.202 179.916 348.094 179.027 349.19 179.027C350.29 179.027 351.179 179.919 351.179 181.015V340.883C351.179 341.982 350.29 342.871 349.19 342.871ZM349.19 419.136C348.091 419.136 347.202 418.244 347.202 417.148V366.306C347.202 365.207 348.094 364.318 349.19 364.318C350.29 364.318 351.179 365.21 351.179 366.306V417.148C351.179 418.244 350.29 419.136 349.19 419.136ZM349.19 154.556C348.091 154.556 347.202 153.664 347.202 152.568V125.164C347.202 124.064 348.094 123.175 349.19 123.175C350.29 123.175 351.179 124.067 351.179 125.164V152.565C351.179 153.664 350.29 154.556 349.19 154.556ZM394.221 421.084C393.122 421.084 392.232 420.192 392.232 419.096V310.704C392.232 309.605 393.124 308.716 394.221 308.716C395.317 308.716 396.209 309.608 396.209 310.704V419.093C396.209 420.192 395.32 421.084 394.221 421.084ZM394.221 227.809C393.122 227.809 392.232 226.917 392.232 225.821V143.894C392.232 142.795 393.124 141.905 394.221 141.905C395.317 141.905 396.209 142.797 396.209 143.894V225.818C396.209 226.917 395.32 227.809 394.221 227.809Z" fill="black"/>
</svg>
